<svg width="28" height="28" viewBox="0 0 28 28" fill="none" xmlns="http://www.w3.org/2000/svg">
<g clip-path="url(#clip0_1996_8429)">
<path d="M5.34375 16.6992C6.66797 16.6992 7.72266 15.6562 7.72266 14.3555C7.72266 13.0547 6.66797 12.0117 5.34375 12.0117C4.05469 12.0117 3 13.0547 3 14.3555C3 15.6562 4.05469 16.6992 5.34375 16.6992ZM14.0508 16.6992C15.3516 16.6992 16.3945 15.6562 16.3945 14.3555C16.3945 13.0547 15.3516 12.0117 14.0508 12.0117C12.7617 12.0117 11.7188 13.0547 11.7188 14.3555C11.7188 15.6562 12.7617 16.6992 14.0508 16.6992ZM22.7578 16.6992C24.0586 16.6992 25.1016 15.6562 25.1016 14.3555C25.1016 13.0547 24.0586 12.0117 22.7578 12.0117C21.4336 12.0117 20.3906 13.0547 20.3906 14.3555C20.3906 15.6562 21.4336 16.6992 22.7578 16.6992Z" fill="current"/>
</g>
<defs>
<clipPath id="clip0_1996_8429">
<rect width="22.1016" height="4.69922" fill="white" transform="translate(3 12)"/>
</clipPath>
</defs>
</svg>
