<svg width="28" height="28" viewBox="0 0 28 28" fill="none" xmlns="http://www.w3.org/2000/svg">
<g clip-path="url(#clip0_1996_17704)">
<path d="M2.87891 20.0352H24.8164C25.3086 20.0352 25.707 19.6367 25.707 19.1328C25.707 18.6406 25.3086 18.2539 24.8164 18.2539H2.87891C2.38672 18.2539 2 18.6406 2 19.1328C2 19.6367 2.38672 20.0352 2.87891 20.0352ZM2.87891 14.9141H24.8164C25.3086 14.9141 25.707 14.5273 25.707 14.0352C25.707 13.5312 25.3086 13.1328 24.8164 13.1328H2.87891C2.38672 13.1328 2 13.5312 2 14.0352C2 14.5273 2.38672 14.9141 2.87891 14.9141ZM2.87891 9.80469H24.8164C25.3086 9.80469 25.707 9.41797 25.707 8.92578C25.707 8.43359 25.3086 8.03516 24.8164 8.03516H2.87891C2.38672 8.03516 2 8.43359 2 8.92578C2 9.41797 2.38672 9.80469 2.87891 9.80469Z" fill="current"/>
</g>
<defs>
<clipPath id="clip0_1996_17704">
<rect width="23.707" height="12.0352" fill="white" transform="translate(2 8)"/>
</clipPath>
</defs>
</svg>
