<svg width="28" height="28" viewBox="0 0 28 28" fill="none" xmlns="http://www.w3.org/2000/svg">
<path d="M6.30324 21.315C6.70168 21.7251 7.39308 21.7134 7.79152 21.315L13.7915 15.3032L19.8032 21.315C20.2017 21.7134 20.8814 21.7251 21.2798 21.315C21.7017 20.9048 21.69 20.2251 21.2798 19.8267L15.2798 13.815L21.2798 7.81496C21.69 7.41652 21.7017 6.72511 21.2798 6.32668C20.8814 5.91652 20.2017 5.92824 19.8032 6.32668L13.7915 12.3384L7.79152 6.32668C7.39308 5.92824 6.70168 5.91652 6.30324 6.32668C5.89308 6.72511 5.9048 7.41652 6.30324 7.81496L12.315 13.815L6.30324 19.8267C5.9048 20.2251 5.89308 20.9048 6.30324 21.315Z" fill="current"/>
</svg>
