<svg width="28" height="28" viewBox="0 0 28 28" fill="none" xmlns="http://www.w3.org/2000/svg">
<path d="M1 22.5859C1 24.918 2.16016 26.125 4.53906 26.125H23.9688C26.4297 26.125 27.6484 24.918 27.6484 22.5039V4.63281C27.6484 2.21875 26.4297 1 23.9688 1H9.84766C7.39844 1 6.16797 2.21875 6.16797 4.63281V10.2227H3.36719C1.87891 10.2227 1 11.0312 1 12.4258V22.5859ZM2.88672 22.5859V12.7891C2.88672 12.3555 3.14453 12.1094 3.57812 12.1094H6.16797V22.5859C6.16797 23.5586 5.45312 24.2383 4.53906 24.2383C3.61328 24.2383 2.88672 23.5234 2.88672 22.5859ZM7.65625 24.2383C7.91406 23.7344 8.05469 23.1484 8.05469 22.4688V4.73828C8.05469 3.51953 8.71094 2.88672 9.88281 2.88672H23.9336C25.1055 2.88672 25.7617 3.51953 25.7617 4.73828V22.3984C25.7617 23.6172 25.1055 24.2383 23.9336 24.2383H7.65625ZM11.1016 7.98438H22.7383C23.1484 7.98438 23.4648 7.65625 23.4648 7.24609C23.4648 6.84766 23.1484 6.54297 22.7383 6.54297H11.1016C10.6797 6.54297 10.3633 6.84766 10.3633 7.24609C10.3633 7.65625 10.6797 7.98438 11.1016 7.98438ZM11.1016 12.1094H22.7383C23.1484 12.1094 23.4648 11.793 23.4648 11.3945C23.4648 10.9844 23.1484 10.668 22.7383 10.668H11.1016C10.6797 10.668 10.3633 10.9844 10.3633 11.3945C10.3633 11.793 10.6797 12.1094 11.1016 12.1094ZM11.793 20.4648H14.8281C15.7188 20.4648 16.2578 19.9258 16.2578 19.0352V16.2461C16.2578 15.3438 15.7188 14.8047 14.8281 14.8047H11.793C10.8906 14.8047 10.3516 15.3438 10.3516 16.2461V19.0352C10.3516 19.9258 10.8906 20.4648 11.793 20.4648ZM18.3672 16.2461H22.7266C23.1484 16.2461 23.4531 15.9414 23.4531 15.543C23.4531 15.1211 23.1484 14.8047 22.7266 14.8047H18.3672C17.9453 14.8047 17.6406 15.1211 17.6406 15.543C17.6406 15.9414 17.9453 16.2461 18.3672 16.2461ZM18.3672 20.4648H22.7266C23.1484 20.4648 23.4531 20.1602 23.4531 19.7617C23.4531 19.3516 23.1484 19.0234 22.7266 19.0234H18.3672C17.9453 19.0234 17.6406 19.3516 17.6406 19.7617C17.6406 20.1602 17.9453 20.4648 18.3672 20.4648Z" fill="current"/>
</svg>
